<mxfile host="app.diagrams.net" modified="2023-06-11T21:59:41.883Z" agent="Mozilla/5.0 (Windows NT 10.0; Win64; x64) AppleWebKit/537.36 (KHTML, like Gecko) Chrome/114.0.0.0 Safari/537.36" etag="o7Eb8N_abK1V75zTpzh6" version="21.3.7" type="github">
  <diagram id="C5RBs43oDa-KdzZeNtuy" name="Page-1">
    <mxGraphModel dx="1050" dy="1750" grid="1" gridSize="10" guides="1" tooltips="1" connect="1" arrows="1" fold="1" page="1" pageScale="1" pageWidth="827" pageHeight="1169" math="0" shadow="0">
      <root>
        <mxCell id="WIyWlLk6GJQsqaUBKTNV-0" />
        <mxCell id="WIyWlLk6GJQsqaUBKTNV-1" parent="WIyWlLk6GJQsqaUBKTNV-0" />
        <mxCell id="WIyWlLk6GJQsqaUBKTNV-2" value="" style="rounded=0;html=1;jettySize=auto;orthogonalLoop=1;fontSize=11;endArrow=block;endFill=0;endSize=8;strokeWidth=1;shadow=0;labelBackgroundColor=none;edgeStyle=orthogonalEdgeStyle;entryX=0.5;entryY=0;entryDx=0;entryDy=0;" parent="WIyWlLk6GJQsqaUBKTNV-1" source="WIyWlLk6GJQsqaUBKTNV-3" target="ONqXHzlkg5QWg_Vlz0t2-0" edge="1">
          <mxGeometry relative="1" as="geometry" />
        </mxCell>
        <mxCell id="WIyWlLk6GJQsqaUBKTNV-3" value="Application Start" style="rounded=1;whiteSpace=wrap;html=1;fontSize=12;glass=0;strokeWidth=1;shadow=0;" parent="WIyWlLk6GJQsqaUBKTNV-1" vertex="1">
          <mxGeometry x="20" y="20" width="120" height="40" as="geometry" />
        </mxCell>
        <mxCell id="ONqXHzlkg5QWg_Vlz0t2-5" style="edgeStyle=orthogonalEdgeStyle;rounded=0;orthogonalLoop=1;jettySize=auto;html=1;exitX=0.5;exitY=1;exitDx=0;exitDy=0;entryX=0.5;entryY=0;entryDx=0;entryDy=0;" parent="WIyWlLk6GJQsqaUBKTNV-1" source="ONqXHzlkg5QWg_Vlz0t2-0" target="ONqXHzlkg5QWg_Vlz0t2-4" edge="1">
          <mxGeometry relative="1" as="geometry" />
        </mxCell>
        <mxCell id="ONqXHzlkg5QWg_Vlz0t2-0" value="Initialize libraries, classes &amp;amp; functions." style="rounded=0;whiteSpace=wrap;html=1;" parent="WIyWlLk6GJQsqaUBKTNV-1" vertex="1">
          <mxGeometry x="20" y="100" width="120" height="60" as="geometry" />
        </mxCell>
        <mxCell id="SaKngRvGoXoMuEYDzSeR-5" style="edgeStyle=orthogonalEdgeStyle;rounded=0;orthogonalLoop=1;jettySize=auto;html=1;exitX=1;exitY=0.5;exitDx=0;exitDy=0;entryX=0;entryY=0.5;entryDx=0;entryDy=0;" edge="1" parent="WIyWlLk6GJQsqaUBKTNV-1" source="ONqXHzlkg5QWg_Vlz0t2-4" target="ONqXHzlkg5QWg_Vlz0t2-11">
          <mxGeometry relative="1" as="geometry" />
        </mxCell>
        <mxCell id="ONqXHzlkg5QWg_Vlz0t2-4" value="Setup GUI elements, then call mainloop()." style="rounded=0;whiteSpace=wrap;html=1;" parent="WIyWlLk6GJQsqaUBKTNV-1" vertex="1">
          <mxGeometry x="20" y="200" width="120" height="60" as="geometry" />
        </mxCell>
        <mxCell id="SaKngRvGoXoMuEYDzSeR-23" style="edgeStyle=orthogonalEdgeStyle;rounded=0;orthogonalLoop=1;jettySize=auto;html=1;exitX=1;exitY=0.5;exitDx=0;exitDy=0;entryX=0;entryY=0.5;entryDx=0;entryDy=0;" edge="1" parent="WIyWlLk6GJQsqaUBKTNV-1" source="ONqXHzlkg5QWg_Vlz0t2-8" target="ONqXHzlkg5QWg_Vlz0t2-13">
          <mxGeometry relative="1" as="geometry" />
        </mxCell>
        <mxCell id="ONqXHzlkg5QWg_Vlz0t2-8" value="Window lock dropdown menu clicked" style="rhombus;whiteSpace=wrap;html=1;" parent="WIyWlLk6GJQsqaUBKTNV-1" vertex="1">
          <mxGeometry x="175" y="100" width="130" height="70" as="geometry" />
        </mxCell>
        <mxCell id="SaKngRvGoXoMuEYDzSeR-22" style="edgeStyle=orthogonalEdgeStyle;rounded=0;orthogonalLoop=1;jettySize=auto;html=1;exitX=0.5;exitY=1;exitDx=0;exitDy=0;entryX=0.5;entryY=0;entryDx=0;entryDy=0;" edge="1" parent="WIyWlLk6GJQsqaUBKTNV-1" source="ONqXHzlkg5QWg_Vlz0t2-11" target="ONqXHzlkg5QWg_Vlz0t2-8">
          <mxGeometry relative="1" as="geometry" />
        </mxCell>
        <mxCell id="ONqXHzlkg5QWg_Vlz0t2-11" value="Get a list of currently opened windows with wingui32." style="rounded=0;whiteSpace=wrap;html=1;" parent="WIyWlLk6GJQsqaUBKTNV-1" vertex="1">
          <mxGeometry x="180" y="20" width="120" height="60" as="geometry" />
        </mxCell>
        <mxCell id="SaKngRvGoXoMuEYDzSeR-24" style="edgeStyle=orthogonalEdgeStyle;rounded=0;orthogonalLoop=1;jettySize=auto;html=1;exitX=0.5;exitY=0;exitDx=0;exitDy=0;" edge="1" parent="WIyWlLk6GJQsqaUBKTNV-1" source="ONqXHzlkg5QWg_Vlz0t2-13">
          <mxGeometry relative="1" as="geometry">
            <mxPoint x="400" y="70" as="targetPoint" />
          </mxGeometry>
        </mxCell>
        <mxCell id="SaKngRvGoXoMuEYDzSeR-28" style="edgeStyle=orthogonalEdgeStyle;rounded=0;orthogonalLoop=1;jettySize=auto;html=1;exitX=1;exitY=0.5;exitDx=0;exitDy=0;entryX=0.5;entryY=1;entryDx=0;entryDy=0;" edge="1" parent="WIyWlLk6GJQsqaUBKTNV-1" source="ONqXHzlkg5QWg_Vlz0t2-13" target="SaKngRvGoXoMuEYDzSeR-27">
          <mxGeometry relative="1" as="geometry" />
        </mxCell>
        <mxCell id="SaKngRvGoXoMuEYDzSeR-31" style="edgeStyle=orthogonalEdgeStyle;rounded=0;orthogonalLoop=1;jettySize=auto;html=1;exitX=1;exitY=0.5;exitDx=0;exitDy=0;entryX=0.5;entryY=1;entryDx=0;entryDy=0;" edge="1" parent="WIyWlLk6GJQsqaUBKTNV-1" source="ONqXHzlkg5QWg_Vlz0t2-13" target="SaKngRvGoXoMuEYDzSeR-29">
          <mxGeometry relative="1" as="geometry" />
        </mxCell>
        <mxCell id="SaKngRvGoXoMuEYDzSeR-32" style="edgeStyle=orthogonalEdgeStyle;rounded=0;orthogonalLoop=1;jettySize=auto;html=1;exitX=1;exitY=0.5;exitDx=0;exitDy=0;entryX=0.5;entryY=1;entryDx=0;entryDy=0;" edge="1" parent="WIyWlLk6GJQsqaUBKTNV-1" source="ONqXHzlkg5QWg_Vlz0t2-13" target="SaKngRvGoXoMuEYDzSeR-30">
          <mxGeometry relative="1" as="geometry" />
        </mxCell>
        <mxCell id="ONqXHzlkg5QWg_Vlz0t2-13" value="User selects an item from the dropdown." style="rhombus;whiteSpace=wrap;html=1;" parent="WIyWlLk6GJQsqaUBKTNV-1" vertex="1">
          <mxGeometry x="360" y="95" width="80" height="80" as="geometry" />
        </mxCell>
        <mxCell id="ONqXHzlkg5QWg_Vlz0t2-15" value="Set the window to be locked variable to the selected item." style="rounded=0;whiteSpace=wrap;html=1;" parent="WIyWlLk6GJQsqaUBKTNV-1" vertex="1">
          <mxGeometry x="340" y="-90" width="120" height="60" as="geometry" />
        </mxCell>
        <mxCell id="ONqXHzlkg5QWg_Vlz0t2-18" style="edgeStyle=orthogonalEdgeStyle;rounded=0;orthogonalLoop=1;jettySize=auto;html=1;entryX=0;entryY=0.5;entryDx=0;entryDy=0;" parent="WIyWlLk6GJQsqaUBKTNV-1" target="ONqXHzlkg5QWg_Vlz0t2-19" edge="1">
          <mxGeometry relative="1" as="geometry">
            <mxPoint x="360" y="320" as="targetPoint" />
            <mxPoint x="300" y="320" as="sourcePoint" />
          </mxGeometry>
        </mxCell>
        <mxCell id="ONqXHzlkg5QWg_Vlz0t2-20" style="edgeStyle=orthogonalEdgeStyle;rounded=0;orthogonalLoop=1;jettySize=auto;html=1;exitX=1;exitY=0.5;exitDx=0;exitDy=0;entryX=0;entryY=0.5;entryDx=0;entryDy=0;" parent="WIyWlLk6GJQsqaUBKTNV-1" target="ONqXHzlkg5QWg_Vlz0t2-22" edge="1">
          <mxGeometry relative="1" as="geometry">
            <mxPoint x="480" y="320" as="targetPoint" />
            <mxPoint x="440" y="320" as="sourcePoint" />
          </mxGeometry>
        </mxCell>
        <mxCell id="ONqXHzlkg5QWg_Vlz0t2-44" style="edgeStyle=orthogonalEdgeStyle;rounded=0;orthogonalLoop=1;jettySize=auto;html=1;exitX=1;exitY=0.5;exitDx=0;exitDy=0;" parent="WIyWlLk6GJQsqaUBKTNV-1" target="ONqXHzlkg5QWg_Vlz0t2-43" edge="1">
          <mxGeometry relative="1" as="geometry">
            <mxPoint x="580" y="320" as="sourcePoint" />
          </mxGeometry>
        </mxCell>
        <mxCell id="ONqXHzlkg5QWg_Vlz0t2-41" value="No" style="text;html=1;align=center;verticalAlign=middle;resizable=0;points=[];autosize=1;strokeColor=none;fillColor=none;" parent="WIyWlLk6GJQsqaUBKTNV-1" vertex="1">
          <mxGeometry x="510" y="150" width="40" height="30" as="geometry" />
        </mxCell>
        <mxCell id="SaKngRvGoXoMuEYDzSeR-26" style="edgeStyle=orthogonalEdgeStyle;rounded=0;orthogonalLoop=1;jettySize=auto;html=1;exitX=0.5;exitY=0;exitDx=0;exitDy=0;entryX=0.5;entryY=1;entryDx=0;entryDy=0;" edge="1" parent="WIyWlLk6GJQsqaUBKTNV-1" source="SaKngRvGoXoMuEYDzSeR-25" target="ONqXHzlkg5QWg_Vlz0t2-15">
          <mxGeometry relative="1" as="geometry" />
        </mxCell>
        <mxCell id="SaKngRvGoXoMuEYDzSeR-25" value="Set Target&lt;br&gt;clicked" style="rhombus;whiteSpace=wrap;html=1;" vertex="1" parent="WIyWlLk6GJQsqaUBKTNV-1">
          <mxGeometry x="360" y="-10" width="80" height="80" as="geometry" />
        </mxCell>
        <mxCell id="SaKngRvGoXoMuEYDzSeR-38" style="edgeStyle=orthogonalEdgeStyle;rounded=0;orthogonalLoop=1;jettySize=auto;html=1;exitX=0.5;exitY=0;exitDx=0;exitDy=0;entryX=0.5;entryY=1;entryDx=0;entryDy=0;" edge="1" parent="WIyWlLk6GJQsqaUBKTNV-1" source="SaKngRvGoXoMuEYDzSeR-27" target="SaKngRvGoXoMuEYDzSeR-33">
          <mxGeometry relative="1" as="geometry" />
        </mxCell>
        <mxCell id="SaKngRvGoXoMuEYDzSeR-27" value="Add clicked" style="rhombus;whiteSpace=wrap;html=1;" vertex="1" parent="WIyWlLk6GJQsqaUBKTNV-1">
          <mxGeometry x="470" y="-10" width="80" height="80" as="geometry" />
        </mxCell>
        <mxCell id="SaKngRvGoXoMuEYDzSeR-37" style="edgeStyle=orthogonalEdgeStyle;rounded=0;orthogonalLoop=1;jettySize=auto;html=1;exitX=0.5;exitY=0;exitDx=0;exitDy=0;entryX=0.5;entryY=1;entryDx=0;entryDy=0;" edge="1" parent="WIyWlLk6GJQsqaUBKTNV-1" source="SaKngRvGoXoMuEYDzSeR-29" target="SaKngRvGoXoMuEYDzSeR-34">
          <mxGeometry relative="1" as="geometry" />
        </mxCell>
        <mxCell id="SaKngRvGoXoMuEYDzSeR-29" value="Remove&lt;br&gt;clicked" style="rhombus;whiteSpace=wrap;html=1;" vertex="1" parent="WIyWlLk6GJQsqaUBKTNV-1">
          <mxGeometry x="580" y="-10" width="80" height="80" as="geometry" />
        </mxCell>
        <mxCell id="SaKngRvGoXoMuEYDzSeR-36" style="edgeStyle=orthogonalEdgeStyle;rounded=0;orthogonalLoop=1;jettySize=auto;html=1;exitX=0.5;exitY=0;exitDx=0;exitDy=0;entryX=0.5;entryY=1;entryDx=0;entryDy=0;" edge="1" parent="WIyWlLk6GJQsqaUBKTNV-1" source="SaKngRvGoXoMuEYDzSeR-30" target="SaKngRvGoXoMuEYDzSeR-35">
          <mxGeometry relative="1" as="geometry" />
        </mxCell>
        <mxCell id="SaKngRvGoXoMuEYDzSeR-30" value="Clear&lt;br&gt;clicked" style="rhombus;whiteSpace=wrap;html=1;" vertex="1" parent="WIyWlLk6GJQsqaUBKTNV-1">
          <mxGeometry x="700" y="-10" width="80" height="80" as="geometry" />
        </mxCell>
        <mxCell id="SaKngRvGoXoMuEYDzSeR-33" value="Add the window to the whitelist." style="rounded=0;whiteSpace=wrap;html=1;" vertex="1" parent="WIyWlLk6GJQsqaUBKTNV-1">
          <mxGeometry x="450" y="-160" width="120" height="60" as="geometry" />
        </mxCell>
        <mxCell id="SaKngRvGoXoMuEYDzSeR-34" value="Loop through the whitelist, if the selected window is found, remove it." style="rounded=0;whiteSpace=wrap;html=1;" vertex="1" parent="WIyWlLk6GJQsqaUBKTNV-1">
          <mxGeometry x="560" y="-90" width="120" height="60" as="geometry" />
        </mxCell>
        <mxCell id="SaKngRvGoXoMuEYDzSeR-35" value=".clear() the whitelist." style="rounded=0;whiteSpace=wrap;html=1;" vertex="1" parent="WIyWlLk6GJQsqaUBKTNV-1">
          <mxGeometry x="680" y="-160" width="120" height="60" as="geometry" />
        </mxCell>
      </root>
    </mxGraphModel>
  </diagram>
</mxfile>
